<svg width="175" height="90" fill="none" xmlns="http://www.w3.org/2000/svg"><path fill-rule="evenodd" clip-rule="evenodd" d="M.244 89.61c28.762-.774 51.84-24.332 51.84-53.28 0-14.04-5.428-26.81-14.3-36.33H.244v89.61z" fill="#1BC8FF"/><path fill-rule="evenodd" clip-rule="evenodd" d="M141.662 0c-6.704 41.41-42.622 73.03-85.925 73.03-21.09 0-40.428-7.5-55.493-19.98V0h141.418z" fill="#FF8A00"/><path fill-rule="evenodd" clip-rule="evenodd" d="M129.478 0c-6.565 34.748-37.084 61.03-73.74 61.03-21.989 0-41.768-9.457-55.494-24.524V53.05C15.31 65.53 34.647 73.03 55.737 73.03c43.303 0 79.221-31.62 85.925-73.03h-12.184z" fill="#fff"/><path fill-rule="evenodd" clip-rule="evenodd" d="M160.462 0c-2.02 3.498-8.101 11.278-16.609 14.95-10.576 4.567-17.67 1.539-24.654-1.442-5.555-2.371-11.041-4.713-18.153-3.177-7.827 1.69-11.08 5.697-14.659 10.105-3.76 4.632-7.878 9.706-18.04 12.996-11.412 3.696-19.067 1.675-25.769-.093-5.973-1.577-11.189-2.953-17.633.093-7.4 3.5-9.461 8.416-11.284 12.763-2.12 5.056-3.916 9.342-13.417 9.733V0h160.218z" fill="#1F4DEF"/><path fill-rule="evenodd" clip-rule="evenodd" d="M174.286 0h-13.824c-1.565 2.709-5.565 7.986-11.241 11.935-1.654 1.15-3.449 2.187-5.368 3.016-10.576 4.566-17.67 1.538-24.654-1.443-1.268-.541-2.532-1.081-3.813-1.573-4.331-1.665-8.851-2.79-14.34-1.604-1.892.408-3.516.952-4.943 1.604-4.476 2.046-7.002 5.158-9.716 8.5-3.76 4.633-7.879 9.707-18.04 12.997-11.412 3.696-19.067 1.675-25.77-.093-5.972-1.577-11.188-2.953-17.632.093-7.4 3.5-9.462 8.416-11.284 12.763-.842 2.008-1.633 3.895-2.876 5.464C8.9 54.041 5.971 55.693.245 55.928v12.007c5.73-.173 11.094-1.415 15.61-4.669 4.855-3.498 7.03-8.168 8.204-10.858.384-.88.683-1.587.932-2.177.67-1.588.981-2.323 1.605-3.236.497-.728 1.314-1.69 3.478-2.714 2.272-1.074 3.338-.93 10.576.959 7.332 1.913 17.41 4.137 31.393-.391C85.2 40.589 91.16 33.59 95.426 28.34c3.574-4.397 4.517-5.496 8.152-6.28 3.23-.698 5.145.1 11.233 2.633h.001c.607.254 1.256.524 1.952.812 3.454 1.427 8.079 3.165 13.6 3.648 5.733.503 11.767-.39 18.245-3.186 11.773-5.083 19.57-15.289 22.308-20.076L174.286 0z" fill="#fff"/></svg>