<svg xmlns="http://www.w3.org/2000/svg" viewBox="0 0 196 110"><path d="M191.4 12c-32.6 0-58.9 26.4-58.9 58.9 0 15 5.6 28.6 14.8 39H196V12.2c-1.5-.1-3.1-.2-4.6-.2z" fill-rule="evenodd" clip-rule="evenodd" fill="#1bc8ff"/><path d="M17.6 110c2.5-4.1 9.1-12.2 18.1-16.1 11.7-5.1 19.6-1.7 27.4 1.6 6.2 2.6 12.3 5.2 20.1 3.5 8.7-1.9 12.3-6.3 16.3-11.2 4.2-5.1 8.7-10.8 20-14.4 12.7-4.1 21.2-1.9 28.6.1 6.6 1.7 12.4 3.3 19.6-.1 8.2-3.9 10.5-9.3 12.5-14.2 2.4-5.8 4.5-10.6 15.8-10.8V110H17.6z" fill-rule="evenodd" clip-rule="evenodd" fill="#ff8a00"/><path d="M3.8 110h13.8c1.7-2.8 5.4-7.5 10.4-11.4 2.3-1.8 4.9-3.4 7.7-4.7 11.7-5.1 19.6-1.7 27.4 1.6 2.7 1.1 5.3 2.3 8.2 3.1 3.6 1 7.5 1.4 12 .5.7-.1 1.3-.3 1.9-.5 7.4-2.1 10.7-6.2 14.4-10.8 4.2-5.1 8.7-10.8 20-14.4 12.7-4.1 21.2-1.9 28.6.1 6.6 1.7 12.4 3.3 19.6-.1 8.2-3.9 10.5-9.3 12.5-14.2 1.2-2.9 2.3-5.5 4.5-7.5s5.6-3.3 11.2-3.4v-12c-6.5.1-12.5 1.4-17.4 5-5.1 3.7-7.4 8.6-8.7 11.5-.4.9-.7 1.7-1 2.3-.8 1.8-1.2 2.8-1.9 3.9-.7 1-1.8 2.2-4.4 3.5-3 1.4-4.7 1.1-12.6-1-8-2.1-18.9-4.5-34.1.4-14.2 4.6-20.7 12.1-25.3 17.9-4 4.9-5.3 6.5-9.8 7.4-4 .9-6.5-.2-13.1-2.9-.7-.3-1.5-.6-2.3-.9-3.8-1.6-8.8-3.4-14.7-4-6.2-.5-12.7.5-19.7 3.5-12.7 5.5-21.2 16.6-24.1 21.7L3.8 110z" fill-rule="evenodd" clip-rule="evenodd" fill="#fff"/></svg>