<svg width="41" height="40" fill="none" xmlns="http://www.w3.org/2000/svg"><path fill-rule="evenodd" clip-rule="evenodd" d="M20.953 40c11.045 0 20-8.954 20-20s-8.955-20-20-20c-11.046 0-20 8.954-20 20s8.954 20 20 20z" fill="#1BC8FF"/><path d="M33.578 11.797a1 1 0 00-.597-.197h-8.828a1 1 0 00-1 1v2.693a1 1 0 001 1h8.828a1 1 0 00.597-.197l1.812-1.347a1 1 0 000-1.605l-1.812-1.347zM9.165 15.237a1 1 0 000 1.418l1.353 1.347a1 1 0 00.706.29h6.181a1 1 0 001-1V14.6a1 1 0 00-1-1h-6.181a1 1 0 00-.706.29l-1.353 1.347zM24.153 17.674a1 1 0 00-1 1v2.693a1 1 0 001 1h5.76a1 1 0 00.723-.31l1.285-1.346a1 1 0 000-1.38l-1.285-1.347a1 1 0 00-.723-.31h-5.76z" fill="#fff"/><path fill-rule="evenodd" clip-rule="evenodd" d="M21.994 8.636A1.83 1.83 0 0020.953 5.3a1.83 1.83 0 00-1.042 3.335v25.823a1.042 1.042 0 002.083 0V8.636z" fill="#fff"/></svg>