<svg width="40" height="40" fill="none" xmlns="http://www.w3.org/2000/svg"><path fill-rule="evenodd" clip-rule="evenodd" d="M20 40c11.046 0 20-8.954 20-20S31.046 0 20 0 0 8.954 0 20s8.954 20 20 20zM9.042 32.468c.274.256.554.517.857.705-.188-1.325 0-3.25.475-4.432.59-1.45 1.495-1.916 3.429-1.8l.348.021c1.456.092 3.367.211 3.26-1.435-.01-.154-.047-.28-.08-.395-.057-.194-.105-.36-.01-.59a.904.904 0 01.187-.235c.273-.282.618-.639-.375-1.197-.439-.242-.448-.25-.752-.564.196-.124.453-.213.706-.302.372-.13.737-.257.896-.486.173-.383.05-.626-.056-.839-.116-.23-.214-.426.092-.728.048-.048.207-.097.41-.16.75-.232 2.11-.653.808-1.899-.358-.34-.734-.725-1.03-1.155-.724-1.034-.708-1.642-.681-2.68.007-.283.016-.599.01-.964-.036-2.184-1.101-4.744-2.579-6.078-.22-.202-.291-.286-.346-.352-.093-.112-.14-.169-.817-.66-.269-.197-1.012-.716-1.352-.842-.734-.286-3.098 1.79-3.85 2.49-1.683 1.557-3.312 4.108-4.19 6.597a16.91 16.91 0 00-.779 7.655c.44 3.482 2.471 7.762 5.103 10.036.105.092.21.19.316.29zm22.298-4.38c2.92-4.435 3.022-10.223.255-14.822l-.767-1.088c-.844-1.125-.604-2.04.271-2.286.503-.138.752.17.986.457l.045.055.814 1.024c2.898 4.243 3.455 10.104 1.51 15.179-.457 1.189-2.022 4.124-2.897 4.425-.93.33-1.666-.95-1.023-1.901.117-.173.242-.323.37-.476.145-.173.292-.35.436-.567zm-4.59-1.931c1.946-2.441 2.287-6.663.828-10.014-.346-.794-.527-1.018-.711-1.246-.09-.112-.183-.226-.295-.41-.481-.794-.26-1.57.355-1.914 1.429-.795 4.878 6.308 2.613 12.397-.296.795-.473 1.216-.844 1.857-.2.335-.829 1.37-1.11 1.513-.674.354-1.325-.364-1.251-1.235.03-.44.252-.737.414-.948zm-3.252-3.326c-.234.476-.344.586-.549.79-.076.077-.165.166-.279.292-.857.948.04 2.146 1.218 1.806 1.236-.357 4.391-4.765.652-8.735-.292-.304-.584-.582-1.246-.465-.546.098-.916.384-.955.948-.038.503.235.787.491 1.053.067.069.133.137.19.207.595.707 1.004 1.645.897 2.754-.059.501-.224.948-.419 1.35z" fill="#FF8A00"/></svg>