<svg width="41" height="41" fill="none" xmlns="http://www.w3.org/2000/svg"><path fill-rule="evenodd" clip-rule="evenodd" d="M40.953 20.559c0 11.045-8.955 20-20 20-11.046 0-20-8.955-20-20 0-11.046 8.954-20 20-20 11.045 0 20 8.954 20 20zM23.684 9.52l-5.78-2.428a.778.778 0 00-.602 0 .793.793 0 00-.427.432l-2.348 5.75-4.104 5.019a.808.808 0 00-.152.728l2.228 7.957a.795.795 0 00.758.581.78.78 0 00.383-.101l7.124-4.03a.8.8 0 00.4-.623l.598-6.491 2.349-5.75a.803.803 0 00-.427-1.044zm-4.05 12.718l-4.783 2.706 2.038-4.99a.803.803 0 00-.426-1.044.784.784 0 00-1.029.432l-2.038 4.991-1.497-5.344 3.545-4.334 2.353.988 2.354.989-.516 5.606zm9.015-5.207h10.329c.906 0 .906.411.906.918a.912.912 0 01-.906.918H28.649c-1.106 0-2.005.912-2.005 2.032s.9 2.032 2.005 2.032c2.105 0 3.817 1.736 3.817 3.868 0 2.133-1.712 3.869-3.817 3.869H9.24a.912.912 0 01-.906-.918c0-.508.406-.919.906-.919h19.41c1.105 0 2.004-.911 2.004-2.032 0-1.12-.9-2.032-2.005-2.032-2.105 0-3.817-1.735-3.817-3.868s1.712-3.868 3.817-3.868z" fill="#E93F46"/></svg>