<svg width="40" height="41" fill="none" xmlns="http://www.w3.org/2000/svg"><path fill-rule="evenodd" clip-rule="evenodd" d="M20 40.117c11.046 0 20-8.954 20-20s-8.954-20-20-20-20 8.954-20 20 8.954 20 20 20zm.125-28.566c.076-.537.066-1.118.057-1.677-.003-.183-.006-.363-.006-.54-.026-.79-.051-1.554-.152-2.318-.127-.79-1.268-.917-1.268-.025-.004.218-.01.444-.017.676-.039 1.334-.082 2.84.372 4.011.203.586.913.485 1.014-.127zm4.082 1.401c.444-.4.802-.929 1.154-1.448l.088-.131.073-.107c.359-.528.733-1.079 1.018-1.651.38-.714-.38-1.733-.964-1.045-.454.533-.732 1.115-1.035 1.749l-.004.01c-.238.497-.523.98-.805 1.46-.08.133-.158.266-.235.4-.304.534.254 1.146.71.763zm-9.153-.407c-.38-.612-.76-1.223-1.192-1.784l-.075-.097c-.403-.523-.778-1.01-1.04-1.61-.355-.866.735-1.299 1.191-.637.327.452.605.937.886 1.428l.205.356.053.094c.314.557.642 1.14.834 1.791.177.637-.507.994-.862.459zm12.424 2.777c.441-.336.91-.618 1.378-.899.313-.188.625-.375.93-.579.861-.586-.077-2.19-.838-1.478-.204.191-.408.377-.61.56-.53.48-1.05.952-1.545 1.504-.43.484.203 1.248.685.892zM12.62 14.2c.583.356.178 1.35-.406 1.095-.304-.141-.617-.265-.93-.39-.76-.301-1.525-.605-2.188-1.164-.558-.458-.203-1.503.481-1.223.995.415 1.967 1.016 2.916 1.603l.127.079zm-5.071 4.892c1.065.305 2.206.356 3.27.28.28-.026.406-.484.127-.637-.988-.637-2.13-1.045-3.296-.943-.608.026-.735 1.121-.101 1.3zM18.425 31.07c.004-.56.009-1.14.098-1.675.116-.61.829-.694 1.017-.103.425 1.183.345 2.687.274 4.02-.012.23-.024.457-.033.675-.022.892-1.16.736-1.267-.056-.083-.767-.09-1.532-.096-2.322.005-.176.006-.356.007-.54zm-3.532-4.085c-.454.389-.825.91-1.19 1.42l-.09.129-.076.105c-.372.52-.759 1.06-1.058 1.626-.397.704.338 1.741.938 1.068.467-.521.76-1.097 1.077-1.723l.005-.01c.25-.492.546-.967.84-1.44l.245-.393c.317-.528-.226-1.153-.691-.782zm9.633 1.956c.366.62.73 1.241 1.148 1.812l.073.1c.39.532.753 1.028 1 1.634.334.874-.766 1.28-1.206.607-.316-.459-.581-.95-.85-1.448l-.197-.361-.05-.095c-.3-.565-.615-1.156-.79-1.812-.163-.64.53-.98.872-.437zm-13.755-4.82c-.449.325-.924.595-1.4.864-.316.18-.633.36-.942.556-.876.565.022 2.193.8 1.498.209-.186.417-.366.625-.545.54-.466 1.072-.925 1.58-1.465.443-.474-.172-1.253-.663-.909zm16.645 2.315c-.574-.371-.145-1.355.432-1.086.3.15.61.281.922.413.75.32 1.508.642 2.158 1.217.547.472.166 1.508-.511 1.21-.985-.438-1.942-1.063-2.876-1.673l-.125-.081zm2.033-9.067c-.598.216-.21 1.217.46 1.074l.145-.03c1.093-.227 2.212-.459 3.22-.842.69-.268.228-1.27-.492-1.22-.866.052-1.63.358-2.388.661-.314.126-.627.25-.945.357zm-.107 3.94c1.066-.05 2.206.028 3.263.36.63.194.476 1.286-.133 1.296-1.169.074-2.3-.361-3.272-1.022-.276-.16-.138-.615.142-.634zm-2.224-.93a7 7 0 11-14 0 7 7 0 0114 0z" fill="#FFE500"/></svg>