<svg width="239" height="246" fill="none" xmlns="http://www.w3.org/2000/svg"><path fill-rule="evenodd" clip-rule="evenodd" d="M101.734.001c-2.794 0-5.102 2.302-5.102 5.099 0 2.796 2.308 5.098 5.102 5.098 2.795 0 5.102-2.302 5.102-5.098A5.082 5.082 0 00101.734 0zm36.381 15.125a5.459 5.459 0 005.455-5.45 5.458 5.458 0 00-5.455-5.452 5.458 5.458 0 00-5.454 5.451 5.458 5.458 0 005.454 5.45zm33.843 11.69a5.735 5.735 0 005.737-5.732 5.735 5.735 0 00-5.737-5.733 5.735 5.735 0 00-5.737 5.733 5.735 5.735 0 005.737 5.732zm22.208 22.886a5.876 5.876 0 005.878-5.873 5.876 5.876 0 00-5.878-5.873 5.876 5.876 0 00-5.878 5.873 5.876 5.876 0 005.878 5.873zm27.992 17.962c3.4 0 6.16-2.753 6.16-6.155a6.157 6.157 0 00-6.16-6.155c-3.4 0-6.16 2.754-6.16 6.155a6.157 6.157 0 006.16 6.155zm-21.786 19.364a5.94 5.94 0 005.948-5.944 5.94 5.94 0 00-5.948-5.944 5.94 5.94 0 00-5.949 5.911c-.09 3.293 2.71 5.977 5.949 5.977zm-37.817-17.633c0 3.15 2.589 5.733 5.736 5.733s5.737-2.584 5.737-5.733c0-3.149-2.59-5.732-5.737-5.732-3.122 0-5.736 2.488-5.736 5.732zm-13.441-20.538a5.593 5.593 0 005.596-5.591 5.593 5.593 0 00-5.596-5.592 5.593 5.593 0 00-5.595 5.592 5.593 5.593 0 005.595 5.591zm-31.49-8.971a5.158 5.158 0 00-5.173-5.17 5.158 5.158 0 00-5.173 5.17 5.158 5.158 0 005.173 5.168 5.158 5.158 0 005.173-5.169zm-53.47-28.758c-2.511 0-4.608 2.09-4.608 4.605 0 2.516 2.096 4.606 4.609 4.606 2.512 0 4.609-2.09 4.609-4.605 0-2.48-1.991-4.606-4.61-4.606zM9.798 155.407a3.744 3.744 0 003.762-3.76 3.745 3.745 0 00-3.762-3.761 3.745 3.745 0 00-3.763 3.761c0 1.97 1.622 3.76 3.763 3.76zm-5.782-70.55h-.077l-.077.006c-1.867.144-3.538 1.705-3.538 3.755 0 2.132 1.785 3.62 3.692 3.62 2.019 0 3.692-1.668 3.692-3.69 0-2.023-1.673-3.69-3.692-3.69zm24.253-38.18a4.114 4.114 0 100-8.226 4.114 4.114 0 100 8.225zm51.495-.028c0-2.69-2.2-4.746-4.75-4.746-2.687 0-4.75 2.194-4.75 4.746 0 2.69 2.2 4.747 4.75 4.747 2.653 0 4.75-2.09 4.75-4.747zm10.524 29.084a5.007 5.007 0 005.032 5.028 5.007 5.007 0 005.031-5.028 5.007 5.007 0 00-5.031-5.028 5.007 5.007 0 00-5.032 5.028zm41.342-8.054c-3.033 0-5.384 2.47-5.384 5.38 0 3.035 2.476 5.38 5.384 5.38 3.033 0 5.385-2.47 5.385-5.38 0-3.008-2.379-5.38-5.385-5.38zm-21.6 39.252c0 2.868 2.378 5.24 5.243 5.24s5.243-2.372 5.243-5.24c0-2.867-2.378-5.239-5.243-5.239-2.837 0-5.243 2.273-5.243 5.239zm38.309-8.271c-3.076 0-5.595 2.513-5.595 5.591 0 3.079 2.519 5.592 5.595 5.592 3.077 0 5.596-2.513 5.596-5.592 0-3.078-2.519-5.591-5.596-5.591zm24.157 2.846a5.79 5.79 0 005.808 5.803 5.79 5.79 0 005.807-5.803 5.79 5.79 0 00-5.807-5.803 5.79 5.79 0 00-5.808 5.803zm4.988 31.338c0-3.149-2.59-5.733-5.737-5.733-3.147 0-5.737 2.584-5.737 5.733 0 3.149 2.59 5.732 5.737 5.732 3.147 0 5.737-2.583 5.737-5.732zm-35.041 6.547a5.457 5.457 0 00-5.454-5.45 5.458 5.458 0 00-5.455 5.45 5.458 5.458 0 005.455 5.451 5.457 5.457 0 005.454-5.451zm-44.233-6.573a5.008 5.008 0 00-5.032 5.028 5.008 5.008 0 005.032 5.029 5.009 5.009 0 005.032-5.029 5.008 5.008 0 00-5.032-5.028zm-21.926-29.297c-2.687 0-4.75 2.195-4.75 4.747 0 2.689 2.2 4.746 4.75 4.746 2.686 0 4.75-2.194 4.75-4.746 0-2.586-2.167-4.747-4.75-4.747zM50.97 82.1a4.376 4.376 0 004.397-4.395 4.376 4.376 0 00-4.397-4.394 4.375 4.375 0 00-4.397 4.342c-.106 2.595 2.073 4.447 4.397 4.447zm-14.665 38.66c2.3 0 4.186-1.879 4.186-4.183a4.195 4.195 0 00-4.186-4.183 4.195 4.195 0 00-4.186 4.183 4.195 4.195 0 004.186 4.183zm23.267 21.35a4.526 4.526 0 00-4.539 4.535 4.526 4.526 0 004.539 4.535 4.526 4.526 0 004.538-4.535 4.526 4.526 0 00-4.538-4.535zm24.606 28.525c-2.622 0-4.891 2.129-4.891 4.887 0 2.625 2.135 4.888 4.89 4.888 2.622 0 4.891-2.13 4.891-4.888a4.857 4.857 0 00-4.89-4.887zm-2.82 33.025a4.827 4.827 0 00-4.82 4.817 4.827 4.827 0 004.82 4.817 4.827 4.827 0 004.82-4.817 4.827 4.827 0 00-4.82-4.817zm-34.266-14.944a4.375 4.375 0 004.398-4.394 4.376 4.376 0 00-4.398-4.395 4.376 4.376 0 00-4.397 4.395c0 2.483 2.064 4.394 4.397 4.394zm-32.715 10.577c-2.21 0-3.833 1.789-3.833 3.831 0 2.213 1.795 3.831 3.834 3.831 2.184 0 3.795-1.748 3.832-3.76.119-2.247-1.78-3.902-3.832-3.902zm39.342 35.2a4.466 4.466 0 100-8.929 4.466 4.466 0 100 8.929zm40.823 1.352c-2.724 0-4.962 2.231-4.962 4.958 0 2.726 2.238 4.957 4.962 4.957 2.71 0 4.937-2.207 4.96-4.914.099-2.821-2.23-5.001-4.96-5.001zm38.143 8.292c3.033 0 5.385-2.47 5.385-5.381 0-2.937-2.449-5.38-5.385-5.38-3.033 0-5.384 2.47-5.384 5.38 0 2.911 2.351 5.381 5.384 5.381zm32.645-13.787c-3.147 0-5.737 2.583-5.737 5.732s2.59 5.733 5.737 5.733c3.147 0 5.737-2.584 5.737-5.733 0-3.149-2.59-5.732-5.737-5.732zm27.99-7.406c3.217 0 5.878-2.654 5.878-5.874 0-3.219-2.661-5.873-5.878-5.873-3.218 0-5.878 2.654-5.878 5.873 0 3.314 2.684 5.874 5.878 5.874zm-41.13-17.776a5.639 5.639 0 005.666 5.662 5.639 5.639 0 005.666-5.662 5.639 5.639 0 00-5.666-5.662 5.639 5.639 0 00-5.666 5.662zm-29.138 1.476c0-2.966-2.407-5.239-5.244-5.239-2.864 0-5.243 2.372-5.243 5.239 0 2.966 2.407 5.24 5.243 5.24 2.837 0 5.244-2.274 5.244-5.24zm-3.808-39.014c0-2.867-2.378-5.239-5.243-5.239s-5.243 2.372-5.243 5.239c0 2.839 2.279 5.24 5.243 5.24 2.865 0 5.243-2.372 5.243-5.24zm15.46 11.764v.036l.002.036c.106 2.983 2.48 5.449 5.524 5.449 2.979 0 5.525-2.416 5.525-5.521 0-3.034-2.475-5.45-5.525-5.45-2.954 0-5.526 2.39-5.526 5.45zm30.907-21.365c-3.147 0-5.737 2.583-5.737 5.732s2.59 5.733 5.737 5.733c3.147 0 5.736-2.584 5.736-5.733 0-3.149-2.589-5.732-5.736-5.732zm22.492 20.632h-.033l-.032.001c-3.202.103-5.813 2.618-5.813 5.872a5.864 5.864 0 005.878 5.873c3.193 0 5.877-2.559 5.877-5.873 0-3.29-2.59-5.873-5.877-5.873zm30.035 7.819c-3.337 0-6.16 2.703-6.16 6.155a6.12 6.12 0 006.16 6.155c3.336 0 6.16-2.702 6.16-6.155 0-3.452-2.824-6.155-6.16-6.155zm10.858-17.832c3.451 0 6.16-2.817 6.16-6.155 0-3.453-2.824-6.155-6.16-6.155-3.451 0-6.16 2.816-6.16 6.155 0 3.338 2.709 6.155 6.16 6.155zm-28.626-10.14a5.94 5.94 0 005.949-5.944 5.94 5.94 0 00-5.949-5.943 5.939 5.939 0 00-5.948 5.943 5.94 5.94 0 005.948 5.944zm10.179-39.957c0-3.383-2.753-6.014-6.019-6.014-3.381 0-6.018 2.747-6.018 6.014 0 3.383 2.753 6.014 6.018 6.014 3.288 0 6.019-2.724 6.019-6.014zm25.311-21.905c0-3.453-2.824-6.155-6.16-6.155-3.451 0-6.16 2.817-6.16 6.155 0 3.442 2.806 6.138 6.129 6.155 3.517.089 6.191-2.792 6.191-6.155zm-3.198 27.651c-3.451 0-6.16 2.817-6.16 6.155 0 3.453 2.823 6.155 6.16 6.155 3.451 0 6.16-2.816 6.16-6.155 0-3.36-2.802-6.155-6.16-6.155z" fill="#4469EC"/></svg>