<svg xmlns="http://www.w3.org/2000/svg" xmlns:xlink="http://www.w3.org/1999/xlink" x="0px" y="0px"
	 viewBox="0 0 1546 161" style="enable-background:new 0 0 1546 161;" xml:space="preserve">
<path fill="#F5F5F9" d="M1529.6,473H57.3c-36.8,0-66.7-29.9-66.7-66.7V142.7c0-36.8,29.9-66.7,66.7-66.7h1472.3
	c36.8,0,66.7,29.9,66.7,66.7v263.6C1596.3,443.1,1566.5,473,1529.6,473z"/>
<path fill="#1F4DEF" d="M1593.6,45.4L1593.6,45.4C1593.6,45.4,1593.6,45.4,1593.6,45.4c0,0,0,0-0.1,0.1 M1593.6,45.4l-0.1,0.1
	 M1593.6,45.4L1593.6,45.4l-0.1,0.1 M1593.6,45.4l-0.1,0.1 M1593.4,45.5L1593.4,45.5 M1593.4,45.5L1593.4,45.5
	C1593.4,45.5,1593.4,45.5,1593.4,45.5 M1593.4,45.5l2.9,4.1L1593.4,45.5z M-72.8,132.8c-0.1,0.1-0.1,0.2-0.1,0.2c0,0,0,0,0,0
	L-72.8,132.8C-72.8,132.9-72.8,132.9-72.8,132.8C-72.8,132.9-72.8,132.8-72.8,132.8z M-48.6,140.7c-11.5-6.3-18-9.9-21.6-11.9
	c1-1.4,2.3-3.1,3.9-5c3.8-4.5,9.5-10.1,17.6-16.4l-3.1-3.9l3.1,3.9C-32.6,94.8-6.8,79.7,33.8,66C114.5,38.7,255.2,16.5,499,30.9
	c148.2,8.8,268.3,16.3,367.9,22.6l0,0l0.2,0c226.2,14.2,347.1,21.9,453.4,21.9c72.9,0,134.3-17.8,177.4-35.7
	c21.5-8.9,38.4-17.8,49.8-24.4c5.5-3.2,9.7-5.8,12.5-7.6c2.4,3.3,6.7,9.3,14.7,20.4c7.8,10.8,12.2,16.9,14.5,20.2
	c-0.5,0.3-1,0.7-1.6,1.1c-3.5,2.3-8.6,5.5-15.1,9.2c-13,7.5-31.9,17.4-55.7,27.3c-47.6,19.8-115.5,39.6-196.6,39.6
	c-107.9,0-231.2-7.8-459.5-22.1C761.7,97,642.5,89.5,496,80.8c-240.2-14.2-373.8,8.1-446.3,32.6C13.6,125.6-6.9,138.2-18,146.8
	c-3.3,2.6-5.7,4.8-7.5,6.5c0,0,0,0-0.1,0C-28.9,151.5-35.4,147.9-48.6,140.7z M1564.2,4.5c0.1,0.1,0.1,0.2,0.2,0.3c0,0,0,0,0,0
	L1564.2,4.5z"/>
<path fill="url(#pattern0)" d="M1593.6,45.4L1593.6,45.4C1593.6,45.4,1593.6,45.4,1593.6,45.4c0,0,0,0-0.1,0.1 M1593.6,45.4l-0.1,0.1
	 M1593.6,45.4L1593.6,45.4l-0.1,0.1 M1593.6,45.4l-0.1,0.1 M1593.4,45.5L1593.4,45.5 M1593.4,45.5L1593.4,45.5
	C1593.4,45.5,1593.4,45.5,1593.4,45.5 M1593.4,45.5l2.9,4.1L1593.4,45.5z M-72.8,132.8c-0.1,0.1-0.1,0.2-0.1,0.2c0,0,0,0,0,0
	L-72.8,132.8C-72.8,132.9-72.8,132.9-72.8,132.8C-72.8,132.9-72.8,132.8-72.8,132.8z M-48.6,140.7c-11.5-6.3-18-9.9-21.6-11.9
	c1-1.4,2.3-3.1,3.9-5c3.8-4.5,9.5-10.1,17.6-16.4l-3.1-3.9l3.1,3.9C-32.6,94.8-6.8,79.7,33.8,66C114.5,38.7,255.2,16.5,499,30.9
	c148.2,8.8,268.3,16.3,367.9,22.6l0,0l0.2,0c226.2,14.2,347.1,21.9,453.4,21.9c72.9,0,134.3-17.8,177.4-35.7
	c21.5-8.9,38.4-17.8,49.8-24.4c5.5-3.2,9.7-5.8,12.5-7.6c2.4,3.3,6.7,9.3,14.7,20.4c7.8,10.8,12.2,16.9,14.5,20.2
	c-0.5,0.3-1,0.7-1.6,1.1c-3.5,2.3-8.6,5.5-15.1,9.2c-13,7.5-31.9,17.4-55.7,27.3c-47.6,19.8-115.5,39.6-196.6,39.6
	c-107.9,0-231.2-7.8-459.5-22.1C761.7,97,642.5,89.5,496,80.8c-240.2-14.2-373.8,8.1-446.3,32.6C13.6,125.6-6.9,138.2-18,146.8
	c-3.3,2.6-5.7,4.8-7.5,6.5c0,0,0,0-0.1,0C-28.9,151.5-35.4,147.9-48.6,140.7z M1564.2,4.5c0.1,0.1,0.1,0.2,0.2,0.3c0,0,0,0,0,0
	L1564.2,4.5z"/>
<path fill="none" stroke="#EAEAF0" stroke-width="10" d="M1593.6,45.4L1593.6,45.4C1593.6,45.4,1593.6,45.4,1593.6,45.4c0,0,0,0-0.1,0.1 M1593.6,45.4l-0.1,0.1
	 M1593.6,45.4L1593.6,45.4l-0.1,0.1 M1593.6,45.4l-0.1,0.1 M1593.4,45.5L1593.4,45.5 M1593.4,45.5L1593.4,45.5
	C1593.4,45.5,1593.4,45.5,1593.4,45.5 M1593.4,45.5l2.9,4.1L1593.4,45.5z M-72.8,132.8c-0.1,0.1-0.1,0.2-0.1,0.2c0,0,0,0,0,0
	L-72.8,132.8C-72.8,132.9-72.8,132.9-72.8,132.8C-72.8,132.9-72.8,132.8-72.8,132.8z M-48.6,140.7c-11.5-6.3-18-9.9-21.6-11.9
	c1-1.4,2.3-3.1,3.9-5c3.8-4.5,9.5-10.1,17.6-16.4l-3.1-3.9l3.1,3.9C-32.6,94.8-6.8,79.7,33.8,66C114.5,38.7,255.2,16.5,499,30.9
	c148.2,8.8,268.3,16.3,367.9,22.6l0,0l0.2,0c226.2,14.2,347.1,21.9,453.4,21.9c72.9,0,134.3-17.8,177.4-35.7
	c21.5-8.9,38.4-17.8,49.8-24.4c5.5-3.2,9.7-5.8,12.5-7.6c2.4,3.3,6.7,9.3,14.7,20.4c7.8,10.8,12.2,16.9,14.5,20.2
	c-0.5,0.3-1,0.7-1.6,1.1c-3.5,2.3-8.6,5.5-15.1,9.2c-13,7.5-31.9,17.4-55.7,27.3c-47.6,19.8-115.5,39.6-196.6,39.6
	c-107.9,0-231.2-7.8-459.5-22.1C761.7,97,642.5,89.5,496,80.8c-240.2-14.2-373.8,8.1-446.3,32.6C13.6,125.6-6.9,138.2-18,146.8
	c-3.3,2.6-5.7,4.8-7.5,6.5c0,0,0,0-0.1,0C-28.9,151.5-35.4,147.9-48.6,140.7z M1564.2,4.5c0.1,0.1,0.1,0.2,0.2,0.3c0,0,0,0,0,0
	L1564.2,4.5z"/>

<defs>
	<pattern id="pattern0" patternUnits="userSpaceOnUse" width="116" height="67"> 
		<use xlink:href="#image0"/>
	</pattern>
	<svg id="image0" width="117" height="67" viewBox="0 0 117 67" fill="none" xmlns="http://www.w3.org/2000/svg">
		<g clip-path="url(#clip0)" opacity="0.3">
		<path d="M118.03 -0.435669H-1V68.3294H118.03V-0.435669Z" fill="transparent"/>
		<path d="M32.3091 18.1358C37.0997 8.43083 47.0121 1.78925 58.4789 1.78925C69.9202 1.78925 79.8326 8.43083 84.6232 18.11" stroke="#fff" stroke-width="2.5" stroke-miterlimit="10" stroke-linecap="round" stroke-linejoin="round"/>
		<path d="M41.6099 20.7101C45.1009 15.021 51.3439 11.2368 58.4533 11.2368C65.5627 11.2368 71.7803 15.021 75.2968 20.6843" stroke="#fff" stroke-width="2.5" stroke-miterlimit="10" stroke-linecap="round" stroke-linejoin="round"/>
		<path d="M49.4583 26.0387C51.2675 22.8981 54.6311 20.7872 58.4788 20.7872C62.3266 20.7872 65.6902 22.8981 67.4739 26.0387" stroke="#fff" stroke-width="2.5" stroke-miterlimit="10" stroke-linecap="round" stroke-linejoin="round"/>
		<path d="M3.10693 34.4565C7.89751 24.7773 17.8099 18.11 29.2513 18.11C40.6926 18.11 50.5795 24.7516 55.3956 34.405" stroke="#fff" stroke-width="2.5" stroke-miterlimit="10" stroke-linecap="round" stroke-linejoin="round"/>
		<path d="M12.4587 36.9536C15.9752 31.3417 22.1673 27.609 29.2512 27.609C36.3097 27.609 42.4763 31.3159 46.0183 36.9278" stroke="#fff" stroke-width="2.5" stroke-miterlimit="10" stroke-linecap="round" stroke-linejoin="round"/>
		<path d="M20.2307 42.3853C22.0144 39.2447 25.4035 37.108 29.2513 37.108C33.099 37.108 36.4626 39.2189 38.2718 42.3595" stroke="#fff" stroke-width="2.5" stroke-miterlimit="10" stroke-linecap="round" stroke-linejoin="round"/>
		<path d="M61.5876 34.3536C66.4037 24.7001 76.2906 18.11 87.7065 18.11C99.1733 18.11 109.086 24.7773 113.876 34.4565" stroke="#fff" stroke-width="2.5" stroke-miterlimit="10" stroke-linecap="round" stroke-linejoin="round"/>
		<path d="M70.8374 37.0565C74.3284 31.3674 80.5715 27.5833 87.6809 27.5833C94.7393 27.5833 100.931 31.3159 104.448 36.9278" stroke="#fff" stroke-width="2.5" stroke-miterlimit="10" stroke-linecap="round" stroke-linejoin="round"/>
		<path d="M78.6604 42.4368C80.4441 39.2704 83.8332 37.1338 87.7064 37.1338C91.5797 37.1338 94.9433 39.2704 96.727 42.411" stroke="#fff" stroke-width="2.5" stroke-miterlimit="10" stroke-linecap="round" stroke-linejoin="round"/>
		<path d="M32.3345 50.6744C37.1505 41.021 47.0375 34.3794 58.4533 34.3794C69.8946 34.3794 79.8071 41.021 84.5976 50.7002" stroke="#fff" stroke-width="2.5" stroke-miterlimit="10" stroke-linecap="round" stroke-linejoin="round"/>
		<path d="M41.6609 53.2487C45.1774 47.6111 51.3949 43.8784 58.4534 43.8784C65.5118 43.8784 71.7039 47.6111 75.2204 53.223" stroke="#fff" stroke-width="2.5" stroke-miterlimit="10" stroke-linecap="round" stroke-linejoin="round"/>
		<path d="M49.4836 58.6032C51.2928 55.4883 54.631 53.4032 58.4532 53.4032C62.301 53.4032 65.6391 55.4883 67.4483 58.6289" stroke="#fff" stroke-width="2.5" stroke-miterlimit="10" stroke-linecap="round" stroke-linejoin="round"/>
		<path d="M0.0236816 34.405C11.4395 34.405 21.3265 41.0209 26.1425 50.6486" stroke="#fff" stroke-width="2.5" stroke-miterlimit="10" stroke-linecap="round" stroke-linejoin="round"/>
		<path d="M0.0236816 43.8783C7.08214 43.8783 13.2742 47.611 16.7907 53.2228" stroke="#fff" stroke-width="2.5" stroke-miterlimit="10" stroke-linecap="round" stroke-linejoin="round"/>
		<path d="M0.0236816 53.4031C3.84595 53.4031 7.15858 55.4625 8.99327 58.5773" stroke="#fff" stroke-width="2.5" stroke-miterlimit="10" stroke-linecap="round" stroke-linejoin="round"/>
		<path d="M90.7642 50.7258C95.5547 41.0466 105.467 34.405 116.908 34.405" stroke="#fff" stroke-width="2.5" stroke-miterlimit="10" stroke-linecap="round" stroke-linejoin="round"/>
		<path d="M100.065 53.3516C103.556 47.6625 109.799 43.8783 116.908 43.8783" stroke="#fff" stroke-width="2.5" stroke-miterlimit="10" stroke-linecap="round" stroke-linejoin="round"/>
		<path d="M107.913 58.6288C109.723 55.514 113.061 53.4031 116.908 53.4031" stroke="#fff" stroke-width="2.5" stroke-miterlimit="10" stroke-linecap="round" stroke-linejoin="round"/>
		<path d="M61.562 67.0466C66.3526 57.3932 76.265 50.7516 87.7063 50.7516C99.1222 50.7516 109.009 57.3674 113.825 66.9951" stroke="#fff" stroke-width="2.5" stroke-miterlimit="10" stroke-linecap="round" stroke-linejoin="round"/>
		<path d="M72.7996 67.0209C76.4435 62.8506 81.7692 60.2249 87.6809 60.2249C93.6182 60.2249 98.9694 62.8763 102.613 67.0466" stroke="#fff" stroke-width="2.5" stroke-miterlimit="10" stroke-linecap="round" stroke-linejoin="round"/>
		<path d="M3.15771 66.9437C7.97377 57.3159 17.8607 50.7258 29.2511 50.7258C40.6669 50.7258 50.5539 57.3417 55.3699 66.9951" stroke="#fff" stroke-width="2.5" stroke-miterlimit="10" stroke-linecap="round" stroke-linejoin="round"/>
		<path d="M14.3442 67.0209C17.9881 62.8506 23.3138 60.2249 29.2511 60.2249C35.1883 60.2249 40.514 62.8506 44.1325 67.0209" stroke="#fff" stroke-width="2.5" stroke-miterlimit="10" stroke-linecap="round" stroke-linejoin="round"/>
		<path d="M0.0236816 1.76349C11.4905 1.76349 21.4029 8.43081 26.1935 18.1358" stroke="#fff" stroke-width="2.5" stroke-miterlimit="10" stroke-linecap="round" stroke-linejoin="round"/>
		<path d="M0.0236816 11.2625C7.1331 11.2625 13.3761 15.0466 16.8672 20.71" stroke="#fff" stroke-width="2.5" stroke-miterlimit="10" stroke-linecap="round" stroke-linejoin="round"/>
		<path d="M0.0236816 20.7872C3.89691 20.7872 7.26051 22.9239 9.04424 26.0645" stroke="#fff" stroke-width="2.5" stroke-miterlimit="10" stroke-linecap="round" stroke-linejoin="round"/>
		<path d="M90.7642 18.11C95.5547 8.43082 105.467 1.76349 116.934 1.76349" stroke="#fff" stroke-width="2.5" stroke-miterlimit="10" stroke-linecap="round" stroke-linejoin="round"/>
		<path d="M100.04 20.7615C103.531 15.0466 109.799 11.2625 116.909 11.2625" stroke="#fff" stroke-width="2.5" stroke-miterlimit="10" stroke-linecap="round" stroke-linejoin="round"/>
		<path d="M107.913 26.013C109.723 22.8724 113.061 20.7872 116.908 20.7872" stroke="#fff" stroke-width="2.5" stroke-miterlimit="10" stroke-linecap="round" stroke-linejoin="round"/>
		<path d="M61.6196 0.967109C66.4102 -8.68636 76.3226 -15.3279 87.764 -15.3279C99.1798 -15.3279 109.067 -8.7121 113.883 0.915621" stroke="#fff" stroke-width="2.5" stroke-miterlimit="10" stroke-linecap="round" stroke-linejoin="round"/>
		<path d="M3.21533 0.864185C8.03139 -8.76354 17.9183 -15.3536 29.3087 -15.3536C40.7245 -15.3536 50.6115 -8.7378 55.4275 0.915665" stroke="#fff" stroke-width="2.5" stroke-miterlimit="10" stroke-linecap="round" stroke-linejoin="round"/>
		<path d="M12.4841 69.5694C16.0006 63.9575 22.1927 60.2249 29.2766 60.2249C36.3351 60.2249 42.5017 63.9318 46.0437 69.5437" stroke="#fff" stroke-width="2.5" stroke-miterlimit="10" stroke-linecap="round" stroke-linejoin="round"/>
		<path d="M12.4841 3.15351C16.0006 -2.45837 22.1927 -6.19104 29.2766 -6.19104C36.3351 -6.19104 42.5017 -2.48411 46.0437 3.12777" stroke="#fff" stroke-width="2.5" stroke-miterlimit="10" stroke-linecap="round" stroke-linejoin="round"/>
		<path d="M20.2561 8.58521C22.0398 5.44462 25.4289 3.30798 29.2767 3.30798C33.1244 3.30798 36.488 5.41888 38.2972 8.55947" stroke="#fff" stroke-width="2.5" stroke-miterlimit="10" stroke-linecap="round" stroke-linejoin="round"/>
		<path d="M70.9521 3.15351C74.4686 -2.45837 80.6607 -6.19104 87.7447 -6.19104C94.8031 -6.19104 100.97 -2.48411 104.512 3.12777" stroke="#fff" stroke-width="2.5" stroke-miterlimit="10" stroke-linecap="round" stroke-linejoin="round"/>
		<path d="M78.7241 8.58521C80.5078 5.44462 83.8969 3.30798 87.7447 3.30798C91.5924 3.30798 94.956 5.41888 96.7652 8.55947" stroke="#fff" stroke-width="2.5" stroke-miterlimit="10" stroke-linecap="round" stroke-linejoin="round"/>
		</g>
		<defs>
		<clipPath id="clip0">
		<rect x="-1" y="-7" width="119" height="78" fill="white"/>
		</clipPath>
		</defs>
	</svg>
</defs>
</svg>
