<svg xmlns="http://www.w3.org/2000/svg" xmlns:xlink="http://www.w3.org/1999/xlink" viewBox="0 0 1551 271"><path fill="#F5F5F9" d="M-9 135.5h1568V321H-9z"/><path fill="none" d="M565.4 191.1c139.2 4.5 167.4-.4 299.2 1.1s195.7 1.6 326 21.7c101.6 15.6 287 6 375-26.6l12-147.3c-74.2 31.8-346.5 92.4-451.9 93.6C993.8 135 990.8 75 859 73.4s-158.7 46.5-298 42C421.8 111 241-53.7-15 55.9v142.6c256-109.6 441.1-12 580.4-7.4z"/><path fill="#1F4DEF" d="M565.4 191.1c139.2 4.5 167.4-.4 299.2 1.1s195.7 1.6 326 21.7c101.6 15.6 287 6 375-26.6l12-147.3c-74.2 31.8-346.5 92.4-451.9 93.6C993.8 135 990.8 75 859 73.4s-158.7 46.5-298 42C421.8 111 241-53.7-15 55.9v142.6c256-109.6 441.1-12 580.4-7.4z"/><path fill="url(#pattern0)" d="M565.4 191.1c139.2 4.5 167.4-.4 299.2 1.1s195.7 1.6 326 21.7c101.6 15.6 287 6 375-26.6l12-147.3c-74.2 31.8-346.5 92.4-451.9 93.6C993.8 135 990.8 75 859 73.4s-158.7 46.5-298 42C421.8 111 241-53.7-15 55.9v142.6c256-109.6 441.1-12 580.4-7.4z"/><defs><pattern id="pattern0" patternUnits="userSpaceOnUse" width="116" height="67"><use xlink:href="#image0"/></pattern><svg id="image0" width="117" height="67" fill="none" xmlns="http://www.w3.org/2000/svg"><g clip-path="url(#clip0)" opacity=".3"><path d="M118.03-.436H-1V68.33h119.03V-.436z" fill="transparent"/><path d="M32.31 18.136C37.1 8.43 47.011 1.789 58.478 1.789c11.441 0 21.354 6.642 26.144 16.321" stroke="#fff" stroke-width="2.5" stroke-miterlimit="10" stroke-linecap="round" stroke-linejoin="round"/><path d="M41.61 20.71c3.49-5.689 9.734-9.473 16.843-9.473 7.11 0 13.327 3.784 16.844 9.447M49.458 26.039c1.81-3.14 5.173-5.252 9.02-5.252 3.849 0 7.212 2.111 8.996 5.252" stroke="#fff" stroke-width="2.5" stroke-miterlimit="10" stroke-linecap="round" stroke-linejoin="round"/><path d="M3.107 34.456C7.897 24.777 17.81 18.11 29.25 18.11c11.442 0 21.329 6.642 26.145 16.295" stroke="#fff" stroke-width="2.5" stroke-miterlimit="10" stroke-linecap="round" stroke-linejoin="round"/><path d="M12.459 36.954c3.516-5.612 9.708-9.345 16.792-9.345 7.059 0 13.225 3.707 16.767 9.319M20.23 42.385c1.784-3.14 5.174-5.277 9.021-5.277 3.848 0 7.212 2.11 9.02 5.252M61.588 34.354C66.404 24.7 76.29 18.11 87.707 18.11c11.466 0 21.379 6.667 26.169 16.346" stroke="#fff" stroke-width="2.5" stroke-miterlimit="10" stroke-linecap="round" stroke-linejoin="round"/><path d="M70.837 37.056c3.491-5.689 9.734-9.473 16.844-9.473 7.058 0 13.25 3.733 16.767 9.345M78.66 42.437c1.784-3.167 5.173-5.303 9.046-5.303 3.874 0 7.237 2.136 9.021 5.277" stroke="#fff" stroke-width="2.5" stroke-miterlimit="10" stroke-linecap="round" stroke-linejoin="round"/><path d="M32.334 50.674c4.816-9.653 14.703-16.295 26.12-16.295 11.44 0 21.353 6.642 26.144 16.321" stroke="#fff" stroke-width="2.5" stroke-miterlimit="10" stroke-linecap="round" stroke-linejoin="round"/><path d="M41.66 53.249c3.517-5.638 9.735-9.37 16.793-9.37 7.059 0 13.25 3.732 16.767 9.344M49.484 58.603c1.809-3.115 5.147-5.2 8.97-5.2 3.847 0 7.185 2.085 8.994 5.226M.024 34.405c11.416 0 21.302 6.616 26.118 16.244M.024 43.878c7.058 0 13.25 3.733 16.767 9.345M.024 53.403c3.822 0 7.135 2.06 8.97 5.174M90.764 50.726c4.79-9.68 14.703-16.321 26.144-16.321M100.065 53.352c3.491-5.69 9.734-9.474 16.843-9.474M107.913 58.629c1.81-3.115 5.148-5.226 8.995-5.226" stroke="#fff" stroke-width="2.5" stroke-miterlimit="10" stroke-linecap="round" stroke-linejoin="round"/><path d="M61.562 67.047c4.79-9.654 14.703-16.295 26.144-16.295 11.416 0 21.303 6.615 26.119 16.243" stroke="#fff" stroke-width="2.5" stroke-miterlimit="10" stroke-linecap="round" stroke-linejoin="round"/><path d="M72.8 67.02c3.644-4.17 8.97-6.795 14.88-6.795 5.938 0 11.29 2.651 14.933 6.822M3.158 66.944C7.974 57.316 17.86 50.726 29.25 50.726c11.416 0 21.303 6.616 26.119 16.27" stroke="#fff" stroke-width="2.5" stroke-miterlimit="10" stroke-linecap="round" stroke-linejoin="round"/><path d="M14.344 67.02c3.644-4.17 8.97-6.795 14.907-6.795 5.937 0 11.263 2.626 14.881 6.796M.024 1.763c11.467 0 21.379 6.668 26.17 16.373M.024 11.262c7.11 0 13.352 3.785 16.843 9.448M.024 20.787c3.873 0 7.237 2.137 9.02 5.277M90.764 18.11c4.79-9.68 14.703-16.347 26.17-16.347M100.04 20.762c3.491-5.715 9.759-9.5 16.869-9.5M107.913 26.013c1.81-3.14 5.148-5.226 8.995-5.226M61.62.967c4.79-9.653 14.703-16.295 26.144-16.295 11.416 0 21.303 6.616 26.119 16.244M3.215.864C8.031-8.764 17.918-15.354 29.31-15.354c11.415 0 21.302 6.616 26.119 16.27" stroke="#fff" stroke-width="2.5" stroke-miterlimit="10" stroke-linecap="round" stroke-linejoin="round"/><path d="M12.484 69.57c3.517-5.612 9.709-9.345 16.793-9.345 7.058 0 13.225 3.707 16.767 9.319M12.484 3.154c3.517-5.612 9.709-9.345 16.793-9.345 7.058 0 13.225 3.707 16.767 9.319M20.256 8.585c1.784-3.14 5.173-5.277 9.02-5.277 3.848 0 7.212 2.11 9.021 5.251M70.952 3.154c3.517-5.612 9.709-9.345 16.793-9.345 7.058 0 13.225 3.707 16.767 9.319M78.724 8.585c1.784-3.14 5.173-5.277 9.02-5.277 3.848 0 7.212 2.11 9.021 5.251" stroke="#fff" stroke-width="2.5" stroke-miterlimit="10" stroke-linecap="round" stroke-linejoin="round"/></g><defs><clipPath id="clip0"><path fill="#fff" d="M-1-7h119v78H-1z"/></clipPath></defs></svg></defs></svg>