<svg width="130" height="147" fill="none" xmlns="http://www.w3.org/2000/svg"><path d="M117.943 101.739c-18.306 17.377-49.22 20.737-74.168-8.478 15.865-15.06 53.076-22.541 74.168 8.478z" fill="#E93F46"/><path d="M60.477 11.826c12.937 21.672 9.434 52.57-24.542 70.501-11.213-18.782-10.349-56.728 24.542-70.501z" fill="#FF8A00"/><path fill-rule="evenodd" clip-rule="evenodd" d="M63.861 1.889l3.484 5.836c7.474 12.52 10.308 27.9 6.163 42.887-4.177 15.104-15.2 28.953-33.84 38.79l-6.713 3.543-3.89-6.517c-6.71-11.24-9.568-27.557-5.938-43.054C26.85 27.488 37.446 12.317 57.54 4.384L63.86 1.89zM32.548 75.068c-7.166-20.02-2.906-51.07 27.928-63.242 12.938 21.672 9.434 52.57-24.542 70.501a38.588 38.588 0 01-1.843-3.492 44.293 44.293 0 01-1.544-3.767z" fill="#fff"/><path fill-rule="evenodd" clip-rule="evenodd" d="M128.381 102.861l-4.93 4.68c-10.575 10.038-24.96 16.178-40.49 15.422-15.653-.763-31.582-8.478-45.27-24.506l-4.928-5.772 5.505-5.226c9.494-9.012 24.786-15.38 40.703-15.238 16.314.146 33.441 7.156 45.588 25.02l3.822 5.62zM50.115 88.365c17.96-11.382 49.188-14.039 67.828 13.374-18.305 17.377-49.22 20.737-74.168-8.478.93-.883 1.934-1.74 3.004-2.564a44.307 44.307 0 013.336-2.332z" fill="#fff"/></svg>