<svg width="22" height="22" fill="none" xmlns="http://www.w3.org/2000/svg"><path d="M13.424 8.575a5.133 5.133 0 00-7.259 0l-4.663 4.667A5.132 5.132 0 005.132 22a5.1 5.1 0 003.625-1.496l3.85-3.85a.366.366 0 00-.261-.626h-.147a6.17 6.17 0 01-2.346-.455.366.366 0 00-.4.08l-2.768 2.772a2.2 2.2 0 11-3.112-3.112l4.682-4.678a2.2 2.2 0 013.108 0 1.503 1.503 0 002.06 0c.25-.25.4-.58.426-.931a1.466 1.466 0 00-.425-1.13z" fill="#FF8A00"/><path d="M20.495 1.503a5.133 5.133 0 00-7.258 0L9.39 5.345a.367.367 0 00.268.627h.135c.804-.001 1.6.154 2.343.458a.367.367 0 00.4-.08l2.76-2.757a2.2 2.2 0 113.112 3.112l-3.438 3.435-.03.033-1.202 1.196a2.2 2.2 0 01-3.109 0 1.503 1.503 0 00-2.06 0c-.25.25-.402.584-.425.938-.027.42.128.831.425 1.13.424.425.92.773 1.466 1.026.077.036.154.066.231.099.077.033.158.058.235.088.077.029.157.055.234.077l.217.058c.146.037.293.066.443.092a5.1 5.1 0 00.547.051h.278l.22-.025c.08-.004.165-.022.26-.022h.125l.253-.037.117-.022.213-.044h.04a5.131 5.131 0 002.38-1.35l4.666-4.666a5.133 5.133 0 000-7.259z" fill="#FF8A00"/></svg>