<svg width="17" height="19" viewBox="0 0 17 19" fill="none" xmlns="http://www.w3.org/2000/svg">
<path fill-rule="evenodd" clip-rule="evenodd" d="M16.6913 16.149L12.709 11.9832C13.7332 10.7578 14.2944 9.21662 14.2944 7.61226C14.2944 3.86456 11.2633 0.81543 7.53628 0.81543C3.81112 0.81543 0.780029 3.86456 0.780029 7.61226C0.780029 11.3611 3.81112 14.4102 7.53628 14.4102C8.93505 14.4102 10.2692 13.9861 11.408 13.1793L15.4217 17.3784C15.5896 17.5546 15.8147 17.6511 16.0574 17.6511C16.2855 17.6511 16.5018 17.5631 16.667 17.4032C17.0185 17.0641 17.0284 16.5026 16.6913 16.149ZM7.53628 2.58898C10.2905 2.58898 12.5313 4.84314 12.5313 7.61226C12.5313 10.3829 10.2905 12.6366 7.53628 12.6366C4.78354 12.6366 2.54309 10.3829 2.54309 7.61226C2.54309 4.84314 4.78354 2.58898 7.53628 2.58898Z" fill="#999293"/>
</svg>
