<svg width="15" height="15" fill="none" xmlns="http://www.w3.org/2000/svg"><mask id="a" maskUnits="userSpaceOnUse" x="0" y="0" width="15" height="15"><path fill-rule="evenodd" clip-rule="evenodd" d="M0 0h14.5v14.502H0V0z" fill="#fff"/></mask><g mask="url(#a)" fill-rule="evenodd" clip-rule="evenodd" fill="#292F3C"><path d="M13.914 5.615a.586.586 0 01-.586-.586V1.172H9.471A.586.586 0 019.47 0h4.443c.324 0 .586.262.586.586v4.443a.586.586 0 01-.586.586zM5.027 14.502H.584a.586.586 0 01-.586-.586V9.473a.586.586 0 111.172 0v3.857h3.857a.586.586 0 010 1.172z"/><path d="M8.73 6.356a.586.586 0 01-.414-1L13.5.172A.586.586 0 1114.33 1L9.145 6.184a.584.584 0 01-.415.172zM.584 14.502a.586.586 0 01-.414-1l5.184-5.184a.586.586 0 11.828.828L.998 14.33a.584.584 0 01-.414.171z"/></g></svg>