<svg width="23" height="17" fill="none" color="#FF8A00" xmlns="http://www.w3.org/2000/svg"><path fill-rule="evenodd" clip-rule="evenodd" d="M4.006 1H19.49a2.505 2.505 0 012.502 2.51v10.58a2.508 2.508 0 01-2.506 2.506H4.006A2.508 2.508 0 011.5 14.09V3.506A2.508 2.508 0 014.006 1zm1.35 2.944a.667.667 0 00-.9.048.582.582 0 00.052.861l4.63 3.863-4.612 4.03a.584.584 0 00-.03.861l.002.002a.672.672 0 00.9.029l4.71-4.112 1.226 1.023a.663.663 0 00.849-.005l1.26-1.054 4.68 4.15a.658.658 0 00.44.165.661.661 0 00.462-.186.584.584 0 00-.024-.861l-4.598-4.075 4.576-3.83a.585.585 0 00.047-.861.67.67 0 00-.9-.045l-6.373 5.34-1.157-.965V8.32l-.034-.032a.91.91 0 00-.095-.077l-5.11-4.268z" fill="currentColor"/></svg>