<svg width="21" height="23" viewBox="0 0 21 23" fill="none" xmlns="http://www.w3.org/2000/svg">
<path fill-rule="evenodd" clip-rule="evenodd" d="M20.6004 20.0447L15.4469 14.6159C16.7723 13.0191 17.4985 11.0107 17.4985 8.91991C17.4985 4.03603 13.5759 0.0625 8.75275 0.0625C3.93196 0.0625 0.0093689 4.03603 0.0093689 8.91991C0.0093689 13.8052 3.93196 17.7788 8.75275 17.7788C10.5629 17.7788 12.2894 17.2261 13.7632 16.1747L18.9575 21.6469C19.1747 21.8765 19.466 22.0021 19.7801 22.0021C20.0752 22.0021 20.3551 21.8876 20.569 21.6791C21.0238 21.2372 21.0366 20.5055 20.6004 20.0447ZM8.75275 2.37374C12.317 2.37374 15.2169 5.31128 15.2169 8.91991C15.2169 12.5305 12.317 15.4675 8.75275 15.4675C5.19038 15.4675 2.29097 12.5305 2.29097 8.91991C2.29097 5.31128 5.19038 2.37374 8.75275 2.37374Z" fill="#3B3C54"/>
</svg>
