<svg width="20" height="20" fill="none" xmlns="http://www.w3.org/2000/svg"><path fill-rule="evenodd" clip-rule="evenodd" d="M.519 9.71C.519 4.399 4.84.078 10.151.078s9.632 4.32 9.632 9.632c0 5.311-4.32 9.632-9.632 9.632-5.31 0-9.632-4.321-9.632-9.632zm4.013 5.722a7.998 7.998 0 005.62 2.305c4.425 0 8.026-3.601 8.026-8.027 0-.738-.108-1.45-.295-2.128-.366.32-.752.577-1.078.595a.668.668 0 01-.516-.19 2.295 2.295 0 00-.53-.387c.288.764 1.15 1.551 1.461 1.793a.4.4 0 01.052.586c-.53.585-1.1 1.416-1.1 1.738 0 .48-.27.715-.468.887h-.001c-.201.176-.334.29-.334.718 0 1.363-2.072 1.933-2.309 1.994a.402.402 0 01-.398-.12c-.092-.103-.905-1.03-.905-1.874 0-.464.138-.68.29-.88.081-.103.11-.142.11-.324 0-.234-.07-.396-.158-.6l-.001-.003c-.108-.246-.241-.553-.241-1.003-.121-.172-1.182-.4-2.408-.4-.798 0-1.606-.414-1.606-1.205 0-.097-.01-.204-.02-.316l-.001-.019v-.001c-.046-.518-.114-1.3.54-1.954.8-.801 2.03-.92 2.692-.92.611 0 .87.121 1.097.228.196.093.365.173.91.173.16 0 .32.003.477.005h.02c.585.01 1.243.02 1.438-.172.02-.019.071-.07.071-.235 0-.45-1.234-.802-2.81-.802-.572 0-.976.193-1.403.397l-.002.001c-.417.199-.847.404-1.403.404a.401.401 0 01-.284-.117.978.978 0 01-.271-.869c.116-.732.899-1.436 1.577-1.78.41-.208.484-.334.493-.353l-.009-.011a.99.99 0 00-.168-.182.404.404 0 01-.017-.583c.023-.023.054-.04.084-.056.017-.01.034-.018.05-.029a8.054 8.054 0 00-.653-.033c-4.258 0-7.742 3.335-8.001 7.528.59.337.9.888 1.129 1.304.115.21.224.407.333.516.144.144.395.172.66.202.372.042 1.063.12 1.063.885 0 .47-.23.801-.434 1.094v.001c-.198.285-.369.53-.369.912v1.307z" fill="#fff"/></svg>