<svg version="1.1" id="logo-big" xmlns="http://www.w3.org/2000/svg" xmlns:xlink="http://www.w3.org/1999/xlink" x="0" y="0" viewBox="0 0 299 109" xml:space="preserve"><style>.st0{fill:#34354e}.st3{fill:#e30613}</style><path class="st0" d="M95.6 55.7h3.5V45h9.8v-3.2h-9.8v-6.9h12.4v-3.4H95.6zM113.6 31.5h3.5v24.2h-3.5zM127.9 31.5h-7v24.2h3.5v-9.3h3.8l5 8.8v.6h4.5l-5.8-10c8.6-2.7 5.5-15.2-4-14.3zm.1 11.7h-3.8v-8.4h3.5c5.7-1 9.1 8.6.3 8.4z"/><path class="st0" d="M148.1 41.8c-3.3-.9-5.9-1.7-5.8-4.2.6-5.4 10.5-3.6 9.7 1.2.4-.1 3.2-.8 3.4-1 .1-8.5-17.3-8.9-16.7 0-.2 8.9 12.6 5 13.4 11.6-.5 6.2-12.1 3.8-10.6-1.6l-3.4.9c-.1 6.3 6.6 7.7 9.3 7.5 11.6.2 10.1-13.5.7-14.4zM155.8 34.9h7.7v20.8h3.5V34.9h7.6v-3.4h-18.8zM188.3 44.7h9.8v-3.3h-9.8v-6.5h12.4v-3.4h-15.9v24.2h16v-3.2h-12.5zM211.9 41.8c-3.3-.9-5.9-1.7-5.8-4.3.6-5.4 10.5-3.6 9.7 1.2.4-.1 3.2-.8 3.4-1 .3-8.5-17.3-8.8-16.6 0-.2 8.9 12.6 5 13.4 11.6-.5 6.2-12.1 3.8-10.6-1.6l-3.4.9c-.1 6.3 6.6 7.7 9.3 7.5 11.6.3 10.1-13.4.6-14.3z"/><path class="st0" d="M238.5 31.5h-18.9v3.4h7.7v20.8h3.6V34.9h7.6zM245.1 31.5l-9.4 23-.6 1.2h3.9l2.6-6.5h10.2l2.6 6.5h3.7l-9.9-24.2h-3.1zM242.9 46c1-2.5 2.8-7.2 3.8-9.6.9 2.6 2.7 7 3.8 9.6h-7.6zM254.9 34.9h7.7v20.8h3.5V34.9h7.7v-3.4h-18.9zM292 34.9v-3.4h-16v24.2h16v-3.2h-12.5v-7.8h9.9v-3.3h-9.9v-6.5zM179.1 73.9c-2 4.7-9.3 3.1-8.9-2.5-.7-5.9 7.9-6.6 8.8-2.6l1.2-.4c-2-5.8-12-3.8-11.2 2.9-.6 6.9 9.4 8.8 11.4 2.7l-1.3-.1z"/><path class="st0" d="M187.7 65c-8-.5-7.9 13.2 0 12.7 7.9.5 7.8-13.1 0-12.7m0 11.6c-6.2.5-6.2-10.8 0-10.4 6.2-.4 6.1 10.9 0 10.4"/><path class="st0" d="M199.5 70.7c-7.9-1.7.9-8 2.6-2.3l1.2-.3c-2.5-7.9-14.5.9-4.5 3.6 8.9 2.2-1.9 8.7-2.9 2.2l-1.2.3c2 8.6 15.8-.5 4.8-3.5M213.7 65.3h-9.5v1.1h4.1v11.2h1.3V66.4h4.1zM219.1 65.3h-1.3c-.1.2-5 12.2-5.1 12.4h1.3l1.4-3.5h5.8l1.4 3.5h1.3l-4.8-12.4zm1.8 7.8H216c.7-1.8 1.8-4.6 2.5-6.3.6 1.6 1.7 4.5 2.4 6.3zM231.6 71c3.2-1.2 1.9-6.1-2.1-5.7h-4v12.4h4.4c5.2.5 5.5-6 1.7-6.7m-2-.4h-2.7v-4.2h2.5c3.7-.3 3.6 4.3.2 4.2m-2.7 1c2.1.1 6-.6 6 2.5.2 2.9-4.1 2.3-6 2.4v-4.9zM237.4 65.3h-1.3v12.3h7.7v-1.2h-6.4zM250.9 65.3h-1.3c-.1.2-5 12.2-5.1 12.4h1.3l1.4-3.5h5.8l1.4 3.5h1.3l-4.8-12.4zm1.8 7.8h-5c.7-1.8 1.8-4.6 2.5-6.3.7 1.6 1.8 4.5 2.5 6.3zM265.7 73.1v2.5l-7-10.2v-.1h-1.3v12.4h1.3V67.4l7 10.3v.1h1.3V65.3h-1.2l-.1 7.8zM279 73.9c-2 4.7-9.3 3.1-8.9-2.5-.7-5.9 7.9-6.6 8.8-2.6l1.2-.4c-2-5.8-12-3.8-11.2 2.9-.6 6.9 9.4 8.8 11.4 2.7l-1.3-.1zM287.5 65.4l-1.4-.1c-.1.2-5 12.2-5.1 12.4h1.3l1.4-3.5h5.8l1.4 3.5h1.3l-4.7-12.3zm1.8 7.7h-5c.7-1.8 1.8-4.6 2.5-6.3.6 1.6 1.8 4.5 2.5 6.3z"/><g><defs><circle id="SVGID_1_" cx="44.4" cy="54.5" r="37.7"/></defs><clipPath id="SVGID_2_"><use xlink:href="#SVGID_1_" overflow="visible"/></clipPath><g clip-path="url(#SVGID_2_)"><path fill="#fff" d="M10.7 31.6l67.1-.7v61.3H10.7z"/><path class="st3" d="M43.4 16.8v14l24.4 22.7H57.7l1 38.7h23.5V16.8z"/><path fill="#ffa800" d="M24.9 54.1h-8.7l27.1-23.4.1.1v-14H6.6v75.4h15.7z"/><path class="st3" d="M32.7 59.3v8.6l-1.6-.1v2.4l1.5.1v10.3h17.6V59.3H32.7zm2.3 2.4h13V69l-13-.9v-6.4zm0 16.5v-7.7l13 .9v6.8H35z"/></g></g></svg>