<?xml version="1.0" encoding="utf-8"?>
<!-- Generator: Adobe Illustrator 25.0.1, SVG Export Plug-In . SVG Version: 6.00 Build 0)  -->
<svg version="1.1" id="Слой_1" xmlns="http://www.w3.org/2000/svg" xmlns:xlink="http://www.w3.org/1999/xlink" x="0px" y="0px"
	 viewBox="0 0 299 109" style="enable-background:new 0 0 299 109;" xml:space="preserve">
<style type="text/css">
	.st0{fill:#34354E;}
	.st1{clip-path:url(#SVGID_2_);}
	.st2{fill:#FFFFFF;}
	.st3{fill:#E30613;}
	.st4{fill:#FFA800;}
</style>
<g>
	<g>
		<g>
			<polygon class="st0" points="95.6,55.7 99.1,55.7 99.1,45 108.9,45 108.9,41.8 99.1,41.8 99.1,34.9 111.5,34.9 111.5,31.5 
				95.6,31.5 			"/>
			<rect x="113.6" y="31.5" class="st0" width="3.5" height="24.2"/>
			<path class="st0" d="M127.9,31.5h-7v24.2h3.5v-9.3h3.8l5,8.8v0.6h4.5l-5.8-10C140.5,43.1,137.4,30.6,127.9,31.5z M128,43.2h-3.8
				v-8.4c0,0,3.5,0,3.5,0C133.4,33.8,136.8,43.4,128,43.2z"/>
			<path class="st0" d="M148.1,41.8c-3.3-0.9-5.9-1.7-5.8-4.2c0.6-5.4,10.5-3.6,9.7,1.2c0.4-0.1,3.2-0.8,3.4-1
				c0.1-8.5-17.3-8.9-16.7,0c-0.2,8.9,12.6,5,13.4,11.6c-0.5,6.2-12.1,3.8-10.6-1.6l-3.4,0.9c-0.1,6.3,6.6,7.7,9.3,7.5
				C159,56.4,157.5,42.7,148.1,41.8z"/>
			<polygon class="st0" points="155.8,34.9 163.5,34.9 163.5,55.7 167,55.7 167,34.9 174.6,34.9 174.6,31.5 155.8,31.5 			"/>
			<polygon class="st0" points="188.3,44.7 198.1,44.7 198.1,41.4 188.3,41.4 188.3,34.9 200.7,34.9 200.7,31.5 184.8,31.5 
				184.8,55.7 200.8,55.7 200.8,52.5 188.3,52.5 			"/>
			<path class="st0" d="M211.9,41.8c-3.3-0.9-5.9-1.7-5.8-4.3c0.6-5.4,10.5-3.6,9.7,1.2c0.4-0.1,3.2-0.8,3.4-1
				c0.3-8.5-17.3-8.8-16.6,0c-0.2,8.9,12.6,5,13.4,11.6c-0.5,6.2-12.1,3.8-10.6-1.6l-3.4,0.9c-0.1,6.3,6.6,7.7,9.3,7.5
				C222.9,56.4,221.4,42.7,211.9,41.8z"/>
			<polygon class="st0" points="238.5,31.5 219.6,31.5 219.6,34.9 227.3,34.9 227.3,55.7 230.9,55.7 230.9,34.9 238.5,34.9 			"/>
			<path class="st0" d="M245.1,31.5l-9.4,23l-0.6,1.2h3.9l2.6-6.5h10.2l2.6,6.5h3.7l-9.9-24.2H245.1z M242.9,46
				c1-2.5,2.8-7.2,3.8-9.6c0.9,2.6,2.7,7,3.8,9.6H242.9z"/>
			<polygon class="st0" points="254.9,34.9 262.6,34.9 262.6,55.7 266.1,55.7 266.1,34.9 273.8,34.9 273.8,31.5 254.9,31.5 			"/>
			<polygon class="st0" points="292,34.9 292,31.5 276,31.5 276,55.7 292,55.7 292,52.5 279.5,52.5 279.5,44.7 289.4,44.7 
				289.4,41.4 279.5,41.4 279.5,34.9 			"/>
		</g>
		<path class="st0" d="M179.1,73.9c-2,4.7-9.3,3.1-8.9-2.5c-0.7-5.9,7.9-6.6,8.8-2.6l1.2-0.4c-2-5.8-12-3.8-11.2,2.9
			c-0.6,6.9,9.4,8.8,11.4,2.7L179.1,73.9L179.1,73.9z"/>
		<path class="st0" d="M187.7,65c-8-0.5-7.9,13.2,0,12.7C195.6,78.2,195.5,64.6,187.7,65 M187.7,76.6c-6.2,0.5-6.2-10.8,0-10.4
			C193.9,65.8,193.8,77.1,187.7,76.6"/>
		<path class="st0" d="M199.5,70.7c-7.9-1.7,0.9-8,2.6-2.3l1.2-0.3c-2.5-7.9-14.5,0.9-4.5,3.6c8.9,2.2-1.9,8.7-2.9,2.2l-1.2,0.3
			C196.7,82.8,210.5,73.7,199.5,70.7"/>
		<polygon class="st0" points="213.7,65.3 204.2,65.3 204.2,66.4 208.3,66.4 208.3,77.6 209.6,77.6 209.6,66.4 213.7,66.4 		"/>
		<path class="st0" d="M219.1,65.3h-1.3c-0.1,0.2-5,12.2-5.1,12.4h1.3l1.4-3.5h5.8l1.4,3.5h1.3L219.1,65.3L219.1,65.3z M220.9,73.1
			h-4.9c0.7-1.8,1.8-4.6,2.5-6.3C219.1,68.4,220.2,71.3,220.9,73.1z"/>
		<path class="st0" d="M231.6,71c3.2-1.2,1.9-6.1-2.1-5.7c0,0-4,0-4,0v12.4h4.4C235.1,78.2,235.4,71.7,231.6,71 M229.6,70.6h-2.7
			v-4.2h2.5C233.1,66.1,233,70.7,229.6,70.6 M226.9,71.6c2.1,0.1,6-0.6,6,2.5c0.2,2.9-4.1,2.3-6,2.4L226.9,71.6L226.9,71.6z"/>
		<polygon class="st0" points="237.4,65.3 236.1,65.3 236.1,77.6 243.8,77.6 243.8,76.4 237.4,76.4 		"/>
		<path class="st0" d="M250.9,65.3h-1.3c-0.1,0.2-5,12.2-5.1,12.4h1.3l1.4-3.5h5.8l1.4,3.5h1.3L250.9,65.3L250.9,65.3z M252.7,73.1
			h-5c0.7-1.8,1.8-4.6,2.5-6.3C250.9,68.4,252,71.3,252.7,73.1z"/>
		<path class="st0" d="M265.7,73.1c0,0.9,0,1.9,0,2.5l-7-10.2v-0.1h-1.3v12.4h1.3c0-2,0-8.4,0-10.3l7,10.3v0.1h1.3V65.3h-1.2
			L265.7,73.1L265.7,73.1z"/>
		<path class="st0" d="M279,73.9c-2,4.7-9.3,3.1-8.9-2.5c-0.7-5.9,7.9-6.6,8.8-2.6l1.2-0.4c-2-5.8-12-3.8-11.2,2.9
			c-0.6,6.9,9.4,8.8,11.4,2.7L279,73.9L279,73.9z"/>
		<path class="st0" d="M287.5,65.4l-1.4-0.1c-0.1,0.2-5,12.2-5.1,12.4h1.3l1.4-3.5h5.8l1.4,3.5h1.3L287.5,65.4z M289.3,73.1h-5
			c0.7-1.8,1.8-4.6,2.5-6.3C287.4,68.4,288.6,71.3,289.3,73.1z"/>
	</g>
	<g>
		<defs>
			<circle id="SVGID_1_" cx="44.4" cy="54.5" r="37.7"/>
		</defs>
		<clipPath id="SVGID_2_">
			<use xlink:href="#SVGID_1_"  style="overflow:visible;"/>
		</clipPath>
		<g class="st1">
			<polygon class="st2" points="10.7,31.6 77.8,30.9 77.8,92.2 10.7,92.2 			"/>
			<polygon class="st3" points="43.4,16.8 43.4,30.8 67.8,53.5 57.7,53.5 58.7,92.2 82.2,92.2 82.2,16.8 			"/>
			<polygon class="st4" points="24.9,54.1 16.2,54.1 43.3,30.7 43.4,30.8 43.4,16.8 6.6,16.8 6.6,92.2 22.3,92.2 			"/>
			<path class="st3" d="M32.7,59.3v8.6l-1.6-0.1v2.4l1.5,0.1v10.3h17.6V59.3H32.7z M35,61.7H48V69L35,68.1V61.7z M35,78.2v-7.7
				L48,71.4v6.8H35z"/>
		</g>
	</g>
</g>
</svg>
