<?xml version="1.0" encoding="utf-8"?>
<!-- Generator: Adobe Illustrator 25.0.1, SVG Export Plug-In . SVG Version: 6.00 Build 0)  -->
<svg version="1.1" id="Слой_1" xmlns="http://www.w3.org/2000/svg" xmlns:xlink="http://www.w3.org/1999/xlink" x="0px" y="0px"
	 viewBox="0 0 30 30" style="enable-background:new 0 0 30 30;" xml:space="preserve">
<style type="text/css">
	.st0{clip-path:url(#SVGID_2_);}
	.st1{fill:#FFFFFF;}
	.st2{fill:#E30613;}
	.st3{fill:#FFA800;}
</style>
<g>
	<defs>
		<circle id="SVGID_1_" cx="15" cy="15" r="14.8"/>
	</defs>
	<clipPath id="SVGID_2_">
		<use xlink:href="#SVGID_1_"  style="overflow:visible;"/>
	</clipPath>
	<g class="st0">
		<polygon class="st1" points="1.8,6 28.1,5.7 28.1,29.8 1.8,29.8 		"/>
		<polygon class="st2" points="14.6,0.2 14.6,5.7 24.2,14.6 20.2,14.6 20.6,29.8 29.8,29.8 29.8,0.2 		"/>
		<polygon class="st3" points="7.3,14.9 3.9,14.9 14.6,5.7 14.6,5.7 14.6,0.2 0.2,0.2 0.2,29.8 6.3,29.8 		"/>
		<path class="st2" d="M10.4,16.9v3.4l-0.6,0v0.9l0.6,0v4h6.9v-8.3H10.4z M11.3,17.8h5.1v2.9l-5.1-0.4V17.8z M11.3,24.3v-3l5.1,0.4
			v2.7H11.3z"/>
	</g>
</g>
</svg>
