<svg viewBox="0 0 106 8" xmlns="http://www.w3.org/2000/svg" fill-rule="evenodd" clip-rule="evenodd" stroke-linejoin="round" stroke-miterlimit="2"><path d="M17.186 4.981c1.65 0 2.977.633 4.37 1.38l.351.19c1.228.667 2.655 1.443 4.254 1.443 1.6 0 3.028-.776 4.255-1.443l.352-.19c1.392-.747 2.72-1.38 4.37-1.38s2.977.633 4.37 1.38l.351.19c1.227.667 2.655 1.443 4.255 1.443 1.599 0 3.027-.776 4.254-1.443l.352-.19c1.393-.747 2.72-1.38 4.37-1.38 1.648 0 2.977.633 4.37 1.38l.352.19c1.226.667 2.654 1.443 4.254 1.443 1.6 0 3.026-.776 4.254-1.443l.351-.19c1.393-.747 2.721-1.38 4.37-1.38 1.65 0 2.978.633 4.37 1.38l.35.19h.003c1.226.667 2.655 1.443 4.254 1.443 1.6 0 3.026-.776 4.254-1.443l.351-.19c1.393-.747 2.721-1.38 4.37-1.38 1.65 0 2.978.633 4.371 1.38l.352.19c1.227.667 2.654 1.443 4.253 1.443 1.582 0 2.966-.748 4.154-1.388l.016-.009.06-.033c1.24-.67 2.383-1.286 3.744-1.503 1.037-.166 2.041-1.002 2.041-2.213 0-1.126-.991-2.248-2.38-2.027-1.728.275-3.152 1.046-4.328 1.682l-.154.083c-1.278.69-2.196 1.141-3.153 1.141-1.028 0-1.98-.51-3.35-1.249l-.244-.13C92.96 1.587 91.22.714 88.994.714c-2.228 0-3.967.873-5.381 1.632l-.244.131c-1.371.738-2.323 1.25-3.351 1.25-1.03 0-1.98-.512-3.352-1.25l-.243-.13C75.008 1.587 73.27.714 71.041.714c-2.227 0-3.966.873-5.38 1.632l-.245.131c-1.37.738-2.322 1.25-3.35 1.25-1.03 0-1.98-.512-3.352-1.25l-.243-.13C57.056 1.587 55.318.714 53.09.714c-2.228 0-3.965.873-5.38 1.632l-.244.131c-1.372.738-2.323 1.25-3.351 1.25-1.03 0-1.98-.512-3.352-1.25l-.243-.13c-1.416-.76-3.153-1.633-5.381-1.633-2.229 0-3.966.873-5.382 1.632l-.243.131c-1.372.738-2.322 1.25-3.352 1.25-1.028 0-1.98-.512-3.35-1.25l-.244-.13c-1.415-.76-3.153-1.633-5.381-1.633-2.229 0-3.967.873-5.382 1.632l-.243.131c-1.372.738-2.323 1.25-3.352 1.25-.955 0-1.874-.452-3.153-1.142l-.153-.083C3.728 1.867 2.303 1.096.575.821c-1.388-.22-2.38.901-2.38 2.027 0 1.211 1.004 2.047 2.042 2.213 1.36.217 2.503.833 3.743 1.503l.077.042c1.187.64 2.571 1.388 4.152 1.388 1.6 0 3.028-.776 4.254-1.443l.352-.19c1.393-.747 2.722-1.38 4.37-1.38z" fill="#ffa800"/></svg>