<svg width="45" height="45" fill="none" xmlns="http://www.w3.org/2000/svg"><path d="M45 0H0v45h45V0z" fill="#F5F5F9"/><path d="M.039 41.256v2.755c.852 0 1.646-.175 2.42-.485.717-.272 1.394-.66 2.11-1.125a8.656 8.656 0 011.588-.873c.446-.175.891-.272 1.375-.272s.93.097 1.375.272c.523.194 1.046.504 1.588.873.697.465 1.394.853 2.11 1.125.775.31 1.569.485 2.42.485.853 0 1.647-.175 2.421-.485.717-.272 1.394-.66 2.11-1.125a8.658 8.658 0 011.589-.873c.445-.175.89-.272 1.374-.272.484 0 .93.097 1.375.272.523.194 1.046.504 1.588.873.697.465 1.394.853 2.11 1.125.775.31 1.569.485 2.42.485.853 0 1.647-.175 2.421-.485.717-.272 1.395-.66 2.11-1.125a8.658 8.658 0 011.589-.873c.445-.175.89-.272 1.375-.272.483 0 .929.097 1.374.272.523.194 1.046.504 1.588.873.697.465 1.394.853 2.11 1.125.775.31 1.569.485 2.421.485v-2.755c-.484 0-.93-.097-1.375-.271-.523-.194-1.045-.505-1.588-.854-.697-.465-1.394-.853-2.11-1.125a6.415 6.415 0 00-2.42-.484c-.852 0-1.646.174-2.42.484-.717.272-1.395.66-2.112 1.125-.542.369-1.065.66-1.587.854-.446.174-.891.271-1.375.271s-.93-.097-1.375-.271c-.523-.194-1.046-.505-1.588-.854-.697-.465-1.394-.853-2.11-1.125a6.416 6.416 0 00-2.42-.484c-.853 0-1.646.174-2.421.484-.716.272-1.394.66-2.11 1.125-.543.369-1.066.66-1.588.854-.446.174-.891.271-1.375.271s-.93-.097-1.375-.271c-.523-.194-1.046-.505-1.588-.854-.697-.465-1.394-.853-2.11-1.125a6.416 6.416 0 00-2.42-.484c-.853 0-1.647.174-2.421.484-.717.272-1.394.66-2.11 1.125-.543.369-1.066.66-1.588.854-.446.174-.91.271-1.375.271zm0-7.506v2.754c.852 0 1.646-.174 2.42-.485.717-.271 1.394-.66 2.11-1.125a8.65 8.65 0 011.588-.872c.446-.175.891-.272 1.375-.272s.93.097 1.375.272c.523.193 1.046.504 1.588.872.697.466 1.394.854 2.11 1.125.775.31 1.569.485 2.42.485.853 0 1.647-.174 2.421-.485.717-.271 1.394-.66 2.11-1.125a8.65 8.65 0 011.589-.872c.445-.175.89-.272 1.374-.272.484 0 .93.097 1.375.272.523.193 1.046.504 1.588.872.697.466 1.394.854 2.11 1.125.775.31 1.569.485 2.42.485.853 0 1.647-.174 2.421-.485.717-.271 1.395-.66 2.11-1.125a8.65 8.65 0 011.589-.872c.445-.175.89-.272 1.375-.272.483 0 .929.097 1.374.272.523.193 1.046.504 1.588.872.697.466 1.394.854 2.11 1.125.775.31 1.569.485 2.421.485V33.75c-.484 0-.93-.097-1.375-.272-.523-.194-1.045-.504-1.588-.853-.697-.466-1.394-.854-2.11-1.125a6.417 6.417 0 00-2.42-.485c-.852 0-1.646.175-2.42.485-.717.271-1.395.66-2.112 1.125-.542.368-1.065.66-1.587.853-.446.175-.891.272-1.375.272s-.93-.097-1.375-.272c-.523-.194-1.046-.504-1.588-.853-.697-.466-1.394-.854-2.11-1.125a6.418 6.418 0 00-2.42-.485c-.853 0-1.646.175-2.421.485-.716.271-1.394.66-2.11 1.125-.543.368-1.066.66-1.588.853-.446.175-.891.272-1.375.272s-.93-.097-1.375-.272c-.523-.194-1.046-.504-1.588-.853-.697-.466-1.394-.854-2.11-1.125a6.418 6.418 0 00-2.42-.485c-.853 0-1.647.175-2.421.485-.717.271-1.394.66-2.11 1.125-.543.368-1.066.66-1.588.853-.446.175-.91.272-1.375.272zm0-7.506v2.754c.852 0 1.646-.175 2.42-.485.717-.272 1.394-.66 2.11-1.125a8.65 8.65 0 011.588-.873c.446-.175.891-.271 1.375-.271s.93.096 1.375.271c.523.194 1.046.504 1.588.873.697.465 1.394.853 2.11 1.125.775.31 1.569.485 2.42.485.853 0 1.647-.175 2.421-.485.717-.272 1.394-.66 2.11-1.125a8.652 8.652 0 011.589-.873c.445-.175.89-.271 1.374-.271.484 0 .93.096 1.375.271.523.194 1.046.504 1.588.873.697.465 1.394.853 2.11 1.125.775.31 1.569.485 2.42.485.853 0 1.647-.175 2.421-.485.717-.272 1.395-.66 2.11-1.125a8.652 8.652 0 011.589-.873c.445-.175.89-.271 1.375-.271.483 0 .929.096 1.374.271.523.194 1.046.504 1.588.873.697.465 1.394.853 2.11 1.125.775.31 1.569.485 2.421.485v-2.755c-.484 0-.93-.096-1.375-.271-.523-.194-1.045-.504-1.588-.854-.697-.465-1.394-.853-2.11-1.124a6.416 6.416 0 00-2.42-.485c-.852 0-1.646.174-2.42.485-.717.271-1.395.659-2.112 1.125-.542.368-1.065.659-1.587.853-.446.174-.891.271-1.375.271s-.93-.096-1.375-.271c-.523-.194-1.046-.504-1.588-.854-.697-.465-1.394-.853-2.11-1.124a6.416 6.416 0 00-2.42-.485c-.853 0-1.646.174-2.421.485-.716.271-1.394.659-2.11 1.125-.543.368-1.066.659-1.588.853-.446.174-.891.271-1.375.271s-.93-.096-1.375-.271c-.523-.194-1.046-.504-1.588-.854-.697-.465-1.394-.853-2.11-1.124a6.416 6.416 0 00-2.42-.485c-.853 0-1.647.174-2.421.485-.717.271-1.394.659-2.11 1.125-.543.368-1.066.659-1.588.853-.446.174-.91.271-1.375.271zm0-7.488v2.755c.852 0 1.646-.175 2.42-.485.717-.272 1.394-.66 2.11-1.125a8.656 8.656 0 011.588-.873c.446-.175.891-.272 1.375-.272s.93.097 1.375.272c.523.194 1.046.504 1.588.873.697.465 1.394.853 2.11 1.125.775.31 1.569.485 2.42.485.853 0 1.647-.175 2.421-.485.717-.272 1.394-.66 2.11-1.125a8.658 8.658 0 011.589-.873c.445-.175.89-.272 1.374-.272.484 0 .93.097 1.375.272.523.194 1.046.504 1.588.873.697.465 1.394.853 2.11 1.125.775.31 1.569.485 2.42.485.853 0 1.647-.175 2.421-.485.717-.272 1.395-.66 2.11-1.125a8.658 8.658 0 011.589-.873c.445-.175.89-.272 1.375-.272.483 0 .929.097 1.374.272.523.194 1.046.504 1.588.873.697.465 1.394.853 2.11 1.125.775.31 1.569.485 2.421.485v-2.755c-.484 0-.93-.097-1.375-.271-.523-.194-1.045-.505-1.588-.854-.697-.465-1.394-.853-2.11-1.125a6.415 6.415 0 00-2.42-.485c-.852 0-1.646.175-2.42.485-.717.272-1.395.66-2.112 1.125-.542.369-1.065.66-1.587.854-.446.174-.891.271-1.375.271s-.93-.097-1.375-.271c-.523-.194-1.046-.505-1.588-.854-.697-.465-1.394-.853-2.11-1.125a6.416 6.416 0 00-2.42-.485c-.853 0-1.646.175-2.421.485-.716.272-1.394.66-2.11 1.125-.543.369-1.066.66-1.588.854-.446.174-.891.271-1.375.271s-.93-.097-1.375-.271c-.523-.194-1.046-.505-1.588-.854-.697-.465-1.394-.853-2.11-1.125a6.416 6.416 0 00-2.42-.485c-.853 0-1.647.175-2.421.485-.717.272-1.394.66-2.11 1.125-.543.369-1.066.66-1.588.854-.446.155-.91.271-1.375.271zm0-15.013v2.755c.852 0 1.646-.175 2.42-.485.717-.272 1.394-.66 2.11-1.125.543-.369 1.066-.66 1.588-.854.446-.174.891-.271 1.375-.271s.93.097 1.375.271c.523.194 1.046.505 1.588.854.697.465 1.394.853 2.11 1.125.775.31 1.569.485 2.42.485.853 0 1.647-.175 2.421-.485.717-.272 1.394-.66 2.11-1.125.543-.369 1.066-.66 1.589-.854.445-.174.89-.271 1.374-.271.484 0 .93.097 1.375.271.523.194 1.046.505 1.588.854.697.465 1.394.853 2.11 1.125.775.31 1.569.485 2.42.485.853 0 1.647-.175 2.421-.485.717-.272 1.395-.66 2.11-1.125.543-.369 1.066-.66 1.589-.854.445-.174.89-.271 1.375-.271.483 0 .929.097 1.374.271.523.194 1.046.505 1.588.854.697.465 1.394.853 2.11 1.125.775.31 1.569.485 2.421.485V3.743c-.484 0-.93-.097-1.375-.271-.523-.194-1.045-.504-1.588-.854-.697-.465-1.394-.853-2.11-1.125a6.416 6.416 0 00-2.42-.484c-.852 0-1.646.174-2.42.484-.717.272-1.395.66-2.112 1.125-.542.369-1.065.66-1.587.854-.446.174-.891.271-1.375.271s-.93-.097-1.375-.271c-.523-.194-1.046-.504-1.588-.854-.697-.465-1.394-.853-2.11-1.125a6.417 6.417 0 00-2.42-.484c-.853 0-1.646.174-2.421.484-.716.272-1.394.66-2.11 1.125-.543.369-1.066.66-1.588.854-.446.174-.891.271-1.375.271s-.93-.097-1.375-.271c-.523-.194-1.046-.504-1.588-.854-.697-.465-1.394-.853-2.11-1.125a6.417 6.417 0 00-2.42-.484c-.853 0-1.647.174-2.421.484-.717.272-1.394.66-2.11 1.125-.543.369-1.066.66-1.588.854-.446.174-.91.271-1.375.271zM44.96 14.004a6.416 6.416 0 01-2.42-.485c-.717-.271-1.394-.66-2.11-1.125-.543-.368-1.066-.66-1.588-.853a3.694 3.694 0 00-1.375-.272c-.484 0-.93.097-1.375.272-.523.194-1.046.504-1.588.853-.697.466-1.394.854-2.11 1.125a6.416 6.416 0 01-2.42.485 6.416 6.416 0 01-2.421-.485c-.717-.271-1.394-.66-2.11-1.125-.543-.368-1.066-.66-1.589-.853a3.694 3.694 0 00-1.374-.272c-.484 0-.93.097-1.375.272-.523.194-1.046.504-1.588.853-.697.466-1.394.854-2.11 1.125a6.416 6.416 0 01-2.42.485 6.416 6.416 0 01-2.421-.485c-.717-.271-1.395-.66-2.11-1.125-.543-.368-1.066-.66-1.589-.853a3.695 3.695 0 00-1.374-.272c-.485 0-.93.097-1.375.272-.523.194-1.046.504-1.588.853-.697.466-1.394.854-2.11 1.125A6.416 6.416 0 010 14.004V11.25c.484 0 .93-.097 1.375-.272.523-.194 1.045-.504 1.588-.853C3.66 9.659 4.357 9.27 5.073 9a6.417 6.417 0 012.42-.485c.853 0 1.646.175 2.42.485.717.271 1.395.66 2.111 1.125.543.368 1.066.66 1.588.853.446.175.891.272 1.375.272s.93-.097 1.375-.272c.523-.194 1.046-.504 1.588-.853.697-.466 1.394-.854 2.11-1.125a6.418 6.418 0 012.42-.485c.853 0 1.646.175 2.421.485.716.271 1.394.66 2.11 1.125.543.368 1.066.66 1.588.853.446.175.891.272 1.375.272s.93-.097 1.375-.272c.523-.194 1.046-.504 1.588-.853.697-.466 1.394-.854 2.11-1.125a6.418 6.418 0 012.42-.485c.853 0 1.647.175 2.421.485.717.271 1.394.66 2.11 1.125.543.368 1.066.66 1.589.853.445.175.89.272 1.374.272v2.754z" fill="#F0F0F5"/></svg>