<?xml version="1.0" encoding="utf-8"?>
<!-- Generated by IcoMoon.io -->
<svg version="1.1" xmlns="http://www.w3.org/2000/svg" xmlns:xlink="http://www.w3.org/1999/xlink" width="496" height="16" viewBox="0 0 496 16">
<svg id="icon-spain" width="16" height="16" viewBox="0 0 16 16" x="0" y="0">
<path fill="#ffda44" d="M0 2.667h16v10.667h-16v-10.667z"></path>
<path fill="#d80027" d="M0 2.667h16v3.555h-16v-3.555z"></path>
<path fill="#d80027" d="M0 9.778h16v3.555h-16v-3.555z"></path>
</svg>
<svg id="icon-germany" width="16" height="16" viewBox="0 0 16 16" x="32" y="0">
<path fill="#d80027" d="M0 2.667h16v10.667h-16v-10.667z"></path>
<path fill="#000" d="M0 2.667h16v3.555h-16v-3.555z"></path>
<path fill="#ffda44" d="M0 9.778h16v3.555h-16v-3.555z"></path>
</svg>
<svg id="icon-sweden" width="16" height="16" viewBox="0 0 16 16" x="64" y="0">
<path fill="#0052b4" d="M0 2.667h16v10.667h-16v-10.667z"></path>
<path fill="#ffda44" d="M6 2.667h-2v4.333h-4v2h4v4.333h2v-4.333h10v-2h-10z"></path>
</svg>
<svg id="icon-france" width="16" height="16" viewBox="0 0 16 16" x="96" y="0">
<path fill="#f0f0f0" d="M0 2.667h16v10.667h-16v-10.667z"></path>
<path fill="#0052b4" d="M0 2.667h5.333v10.667h-5.333v-10.667z"></path>
<path fill="#d80027" d="M10.667 2.667h5.333v10.667h-5.333v-10.667z"></path>
</svg>
<svg id="icon-poland" width="16" height="16" viewBox="0 0 16 16" x="128" y="0">
<path fill="#f0f0f0" d="M0 2.667h16v10.666h-16v-10.666z"></path>
<path fill="#f0f0f0" d="M0 2.667h16v5.333h-16v-5.333z"></path>
<path fill="#d80027" d="M0 8h16v5.333h-16v-5.333z"></path>
</svg>
<svg id="icon-netherlands" width="16" height="16" viewBox="0 0 16 16" x="160" y="0">
<path fill="#f0f0f0" d="M0 2.667h16v10.666h-16v-10.666z"></path>
<path fill="#a2001d" d="M0 2.667h16v3.555h-16v-3.555z"></path>
<path fill="#0052b4" d="M0 9.778h16v3.555h-16v-3.555z"></path>
</svg>
<svg id="icon-russia" width="16" height="16" viewBox="0 0 16 16" x="192" y="0">
<path fill="#f0f0f0" d="M0 2.667v10.667h16v-10.667z"></path>
<path fill="#0052b4" d="M0 2.667h16v10.667h-16v-10.667z"></path>
<path fill="#f0f0f0" d="M0 2.667h16v3.555h-16v-3.555z"></path>
<path fill="#d80027" d="M0 9.778h16v3.555h-16v-3.555z"></path>
</svg>
<svg id="icon-united-kingdom" width="16" height="16" viewBox="0 0 16 16" x="224" y="0">
<path fill="#f0f0f0" d="M0 2.667h16v10.667h-16v-10.667z"></path>
<path fill="#d80027" d="M9 2.667h-2v4.333h-7v2h7v4.333h2v-4.333h7v-2h-7z"></path>
<path fill="#0052b4" d="M12.306 9.855l3.694 2.052v-2.052z"></path>
<path fill="#0052b4" d="M9.739 9.855l6.261 3.478v-0.984l-4.49-2.495z"></path>
<path fill="#0052b4" d="M14.332 13.333l-4.593-2.552v2.552z"></path>
<path fill="#f0f0f0" d="M9.739 9.855l6.261 3.478v-0.984l-4.49-2.495z"></path>
<path fill="#d80027" d="M9.739 9.855l6.261 3.478v-0.984l-4.49-2.495z"></path>
<path fill="#0052b4" d="M2.823 9.855l-2.823 1.568v-1.568z"></path>
<path fill="#0052b4" d="M6.261 10.297v3.036h-5.464z"></path>
<path fill="#d80027" d="M4.49 9.855l-4.49 2.495v0.984l6.261-3.478z"></path>
<path fill="#0052b4" d="M3.694 6.145l-3.694-2.052v2.052z"></path>
<path fill="#0052b4" d="M6.261 6.145l-6.261-3.478v0.984l4.49 2.495z"></path>
<path fill="#0052b4" d="M1.668 2.667l4.593 2.552v-2.552z"></path>
<path fill="#f0f0f0" d="M6.261 6.145l-6.261-3.478v0.984l4.49 2.495z"></path>
<path fill="#d80027" d="M6.261 6.145l-6.261-3.478v0.984l4.49 2.495z"></path>
<path fill="#0052b4" d="M13.177 6.145l2.823-1.568v1.568z"></path>
<path fill="#0052b4" d="M9.739 5.703v-3.036h5.464z"></path>
<path fill="#d80027" d="M11.51 6.145l4.49-2.495v-0.984l-6.261 3.478z"></path>
</svg>
</svg>
